<?xml version="1.0" encoding="UTF-8" standalone="no"?>
<!DOCTYPE svg PUBLIC "-//W3C//DTD SVG 1.1//EN" "http://www.w3.org/Graphics/SVG/1.1/DTD/svg11.dtd">
<svg width="100%" height="100%" viewBox="0 0 400 400" version="1.1" xmlns="http://www.w3.org/2000/svg" xmlns:xlink="http://www.w3.org/1999/xlink" xml:space="preserve" xmlns:serif="http://www.serif.com/" style="fill-rule:evenodd;clip-rule:evenodd;stroke-linejoin:round;stroke-miterlimit:2;">
    <g transform="matrix(1,0,0,1,-200,-200)">
        <g transform="matrix(1.02329,0,0,1.02329,-14.6271,-16.631)">
            <rect x="209.742" y="211.7" width="390.896" height="390.896" style="fill:none;"/>
        </g>
        <g transform="matrix(1.00761,0,0,1.00761,-74.6769,-26.4726)">
            <circle cx="465.443" cy="437.219" r="180.315" style="fill:rgb(255,90,0);"/>
        </g>
        <g transform="matrix(0.907876,0,0,0.907876,-28.2577,17.1318)">
            <circle cx="465.443" cy="437.219" r="180.315" style="fill:white;"/>
        </g>
        <g id="Layer1">
            <path d="M449.058,337.541C463.152,358.965 486.583,349.875 500,353.964C515.413,358.661 528.454,364.18 536.223,378.063C543.993,391.946 558.618,406.507 536.223,409.182C513.829,411.858 511.932,424.573 500,461.801C488.068,499.03 465.852,450.489 451.856,441.178C437.86,431.868 430.458,405.118 407.397,400C384.337,394.882 388.444,411.903 362.456,414.072L360.661,414.144C323.134,454.623 302.827,499.611 312.036,524.723C322.331,552.798 346.227,566.282 365.952,570.934C385.676,575.587 474.751,583.71 519.673,517.135C564.594,450.561 557.094,401.526 552.077,384.798C547.059,368.069 536.616,325.805 490.805,325.823C476.135,325.829 462.246,330.337 449.058,337.541Z"/>
            <path d="M360.661,414.144C365.049,409.33 369.71,404.614 374.59,400C397.074,378.742 421.588,352.388 449.058,337.541C446.951,334.364 445.06,330.503 443.438,325.823C430.917,289.684 434.303,316.874 422.456,317.329C410.608,317.784 398.362,296.342 387.782,290.257C377.202,284.171 357.458,293.128 340.337,298.18C323.215,303.233 371.452,282.532 362.456,276.323C352.735,269.614 336.562,284.595 324.826,287.282C313.089,289.97 310.618,289.54 297.54,298.18C284.462,306.821 256.708,333.29 288.305,317.329C319.903,301.368 319.651,316.421 340.337,317.329C361.022,318.237 368.391,319.473 362.456,334.532C356.52,349.59 356.048,337.326 353.307,349.712C346.669,379.709 336.944,414.54 360.661,414.144Z" style="fill:rgb(0,160,255);"/>
            <path d="M449.058,337.541C421.588,352.388 397.074,378.742 374.59,400C369.71,404.614 365.049,409.33 360.661,414.144L362.456,414.072C388.444,411.903 384.337,394.882 407.397,400C430.458,405.118 437.86,431.868 451.856,441.178C465.852,450.489 488.068,499.03 500,461.801C511.932,424.573 513.829,411.858 536.223,409.182C558.618,406.507 543.993,391.946 536.223,378.063C528.454,364.18 515.413,358.661 500,353.964C486.583,349.875 463.152,358.965 449.058,337.541Z" style="fill:rgb(255,90,0);"/>
            <path d="M457.829,400C457.938,416.334 455.648,436.998 462.278,430.815C468.908,424.632 470.896,421.014 472.149,409.755C473.402,398.497 480.636,392.855 472.149,387.195C463.662,381.535 457.721,383.666 457.829,400Z"/>
            <path d="M353.307,449.887C341.215,474.383 336.352,480.67 353.307,500C370.262,519.33 390.908,518.541 394.307,528.426C397.705,538.31 380.365,531.659 410.943,550.615C422.445,557.746 408.84,562.875 406.381,568.131C403.922,573.387 453.113,559.724 460.283,550.615C467.453,541.506 506.518,492.564 460.283,511.482C414.049,530.4 415.531,519.9 400,518.051C384.469,516.201 341.678,490.974 367.605,488.89C393.533,486.806 384.455,509.742 416.951,468.738C449.447,427.734 434.729,442.228 416.951,433.447C399.174,424.666 381.379,455.638 375.547,444.576C369.715,433.513 371.188,407.307 357.364,422.445C343.54,437.584 348.459,442.335 353.307,449.887" style="fill:rgb(255,90,0);"/>
        </g>
    </g>
</svg>
